<svg fill="#ffffff" height="200px" width="200px" version="1.1" id="Layer_1" xmlns="http://www.w3.org/2000/svg" xmlns:xlink="http://www.w3.org/1999/xlink" viewBox="0 0 512 512" xml:space="preserve"><g id="SVGRepo_bgCarrier" stroke-width="0"></g><g id="SVGRepo_tracerCarrier" stroke-linecap="round" stroke-linejoin="round"></g><g id="SVGRepo_iconCarrier"> <g transform="translate(1 1)"> <g> <path d="M425.667,222.573l23.04-115.2c4.267-23.04-0.853-46.933-15.36-64c-14.507-17.067-35.84-27.307-58.88-27.307h-25.6 C348.867,6.68,341.187-1,331.8-1H178.2c-9.387,0-17.067,7.68-17.067,17.067h-25.6c-23.04,0-44.373,10.24-58.88,27.307 c-14.507,17.067-19.627,40.96-15.36,64l23.04,115.2c9.862,41.093,32.393,64.761,64.535,66.452l-18.455,85.441 c-1.707,6.827,0,12.8,4.267,17.92c3.413,5.12,9.387,7.68,16.213,7.68H178.2v17.067h-3.413c-11.947,0-22.187,9.387-22.187,22.187 v20.48h-3.413C137.24,459.8,127,470.04,127,481.987v11.947H84.333c-5.12,0-8.533,3.413-8.533,8.533S79.213,511,84.333,511H127 h255.147H383h42.667c5.12,0,8.533-3.413,8.533-8.533s-3.413-8.533-8.533-8.533h-43.52v-11.947 c0-11.947-9.387-22.187-22.187-22.187h-3.413v-20.48c0-11.947-9.387-22.187-22.187-22.187h-2.56v-17.067h27.307 c5.973,0,11.947-2.56,16.213-7.68s5.973-11.947,4.267-17.92l-18.455-85.441C393.273,287.335,415.805,263.666,425.667,222.573z M178.2,16.067h153.6v17.067H178.2V16.067z M357.4,476.867h3.413c2.56,0,5.12,1.707,5.12,5.12v11.947H144.067v-11.947 c0-2.56,2.56-5.12,5.12-5.12h3.413h203.947H357.4z M335.213,434.2c2.56,0,5.12,1.707,5.12,5.12v20.48H169.667v-20.48 c0-2.56,1.707-5.12,5.12-5.12h3.413h153.6H335.213z M314.733,417.133H195.267v-17.067h25.6h68.267h0h25.6V417.133z M271.213,295.96L255,272.067l-16.213,23.893c-2.415,3.623-3.484,7.816-3.241,11.951c-0.645-0.543-1.276-1.107-1.879-1.711 c-11.093-10.24-12.8-27.307-4.267-39.253l25.6-39.253l27.307,39.253c7.68,11.947,5.973,29.013-4.267,39.253 c-1.165,1.165-2.413,2.213-3.725,3.151C274.932,304.758,273.91,300.005,271.213,295.96z M269.507,365.933 c1.707,0,2.56,0.853,2.56,2.56V383h-34.133v-14.507c0-1.707,0.853-2.56,2.56-2.56H269.507z M361.667,381.293 c-0.853,0.853-1.707,1.707-3.413,1.707H331.8h-42.667v-14.507c0-11.093-8.533-19.627-19.627-19.627h-5.973v-17.003 c9.538-1.759,18.337-6.454,25.6-13.717c16.213-16.213,18.773-41.813,5.973-60.587L255,196.973l-40.107,60.587 c-12.8,18.773-10.24,44.373,5.973,60.587c7.174,7.174,16.343,11.846,25.6,13.654v17.066h-5.973 c-11.093,0-19.627,8.533-19.627,19.627V383H178.2h-27.307c-1.707,0-2.56-0.853-3.413-1.707c-0.853-0.853-0.853-1.707-0.853-3.413 l46.08-213.333c0.853-1.707,2.56-3.413,4.267-3.413v0h6.827v0h102.4v0h5.973c2.56,0,4.267,1.707,4.267,3.413l46.08,213.333 C362.52,379.587,362.52,380.44,361.667,381.293z M289.133,127v17.067h-68.267V127H289.133z M357.468,272.065l-23.961-110.931 c-1.707-10.24-10.24-17.067-20.48-17.067H306.2V127c0-9.387-7.68-17.067-17.067-17.067h-25.6V92.867H280.6 c5.12,0,8.533-3.413,8.533-8.533c0-5.12-3.413-8.533-8.533-8.533h-51.2c-5.12,0-8.533,3.413-8.533,8.533 c0,5.12,3.413,8.533,8.533,8.533h17.067v17.067h-25.6c-9.387,0-17.067,7.68-17.067,17.067v17.067h-6.827 c-9.387,0-18.773,7.68-20.48,17.067l-23.961,110.931c-32.376-0.041-45.163-29.028-51.132-52.905l-23.04-115.2 c-3.413-17.92,0.853-36.693,11.093-49.493c11.947-13.653,28.16-21.333,46.08-21.333h25.6c0,9.387,7.68,17.067,17.067,17.067h153.6 c9.387,0,17.067-7.68,17.067-17.067h25.6c17.92,0,34.133,7.68,45.227,21.333s15.36,31.573,11.947,50.347L408.6,219.16 C403.484,243.036,389.845,272.024,357.468,272.065z"></path> </g> </g> </g></svg>